<?xml version="1.0" standalone="no"?>
<!DOCTYPE svg PUBLIC "-//W3C//DTD SVG 20010904//EN"
 "http://www.w3.org/TR/2001/REC-SVG-20010904/DTD/svg10.dtd">
<svg version="1.0" xmlns="http://www.w3.org/2000/svg"
 width="700.000000pt" height="700.000000pt" viewBox="0 0 700.000000 700.000000"
 preserveAspectRatio="xMidYMid meet">
<metadata>
Created by potrace 1.14, written by Peter Selinger 2001-2017
</metadata>
<g transform="translate(0.000000,700.000000) scale(0.100000,-0.100000)"
fill="#000000" stroke="none">
<path d="M3408 5975 c-2 -1 -39 -5 -83 -9 -44 -3 -91 -8 -105 -10 -14 -3 -54
-10 -89 -16 -225 -40 -508 -158 -714 -300 -132 -90 -171 -122 -298 -251 l-105
-106 -125 45 c-68 24 -133 48 -144 53 -11 4 -74 27 -140 49 -66 23 -129 46
-140 51 -11 5 -45 17 -75 28 -184 65 -314 111 -755 270 -77 28 -151 52 -164
53 -24 3 -30 -13 -182 -437 -87 -241 -157 -440 -156 -441 1 0 81 -29 177 -64
96 -34 225 -80 285 -102 61 -22 128 -46 150 -53 89 -30 848 -305 853 -309 3
-3 0 -38 -6 -78 -17 -109 -23 -181 -25 -305 l-2 -113 -40 -1 c-22 0 -373 -1
-780 -2 l-740 -2 0 -472 0 -471 740 0 c407 -1 758 -1 781 -1 l41 -1 0 -92 c0
-91 10 -247 19 -291 2 -12 6 -39 10 -61 3 -22 8 -44 10 -48 2 -3 -6 -10 -18
-13 -30 -9 -393 -138 -482 -172 -37 -14 -87 -31 -110 -39 -22 -7 -226 -80
-452 -161 l-412 -149 15 -44 c9 -25 76 -214 150 -420 74 -206 137 -385 140
-398 3 -12 11 -22 18 -22 7 0 64 18 126 41 117 42 313 112 429 154 36 12 103
37 150 53 193 69 845 303 850 305 3 1 55 -48 115 -109 170 -171 340 -293 545
-391 126 -61 325 -129 425 -147 17 -3 55 -10 85 -16 98 -17 153 -22 292 -24
167 -3 291 9 453 45 129 29 304 90 425 149 93 46 305 178 341 212 8 7 30 26
49 42 50 41 126 114 191 183 l55 60 35 -13 c81 -29 330 -118 394 -140 39 -14
79 -29 90 -34 11 -5 90 -33 175 -64 85 -30 313 -111 506 -180 193 -69 356
-126 361 -126 5 0 46 105 92 233 77 216 122 341 190 527 46 124 46 128 9 139
-18 5 -85 28 -148 51 -63 23 -176 63 -250 90 -345 123 -959 343 -998 357 l-43
16 7 41 c3 23 8 48 9 57 12 61 18 142 20 257 1 73 5 135 8 138 3 3 354 7 779
8 l773 1 1 460 c0 253 -2 465 -4 471 -2 8 -211 12 -773 12 -423 0 -773 2 -776
5 -3 4 -7 68 -9 144 -1 76 -10 185 -18 242 -9 57 -15 105 -13 107 1 1 61 23
132 49 72 25 153 55 180 65 28 10 154 55 280 100 127 45 248 88 270 97 22 8
108 39 190 68 295 105 409 146 412 149 3 3 -47 146 -199 571 -28 77 -64 179
-81 228 -17 48 -34 87 -39 87 -4 0 -146 -50 -315 -110 -170 -61 -339 -122
-378 -135 -38 -14 -250 -90 -470 -168 l-399 -144 -85 89 c-240 253 -547 439
-876 531 -102 28 -231 54 -320 63 -60 6 -292 13 -297 9z m262 -960 c400 -70
719 -380 801 -779 17 -85 18 -142 16 -806 -2 -393 -6 -725 -9 -738 -4 -12 -16
-55 -27 -95 -69 -253 -267 -494 -501 -611 -199 -99 -451 -131 -665 -82 -61 13
-86 21 -145 44 -60 24 -199 97 -210 111 -3 3 -21 18 -40 32 -178 134 -333 396
-367 619 -4 30 -8 375 -8 765 l0 710 23 84 c27 98 70 210 89 232 7 8 13 19 13
23 0 19 91 139 158 208 145 149 361 262 547 284 28 4 52 8 53 9 10 9 206 1
272 -10z"/>
</g>
</svg>
